<?xml version="1.0" encoding="UTF-8" standalone="no"?>
<svg
   xmlns:dc="http://purl.org/dc/elements/1.1/"
   xmlns:cc="http://creativecommons.org/ns#"
   xmlns:rdf="http://www.w3.org/1999/02/22-rdf-syntax-ns#"
   xmlns:svg="http://www.w3.org/2000/svg"
   xmlns="http://www.w3.org/2000/svg"
   viewBox="0 0 199.97733 199.97733"
   height="199.97733"
   width="199.97733"
   xml:space="preserve"
   id="svg2"
   version="1.1"><metadata
     id="metadata8"><rdf:RDF><cc:Work
         rdf:about=""><dc:format>image/svg+xml</dc:format><dc:type
           rdf:resource="http://purl.org/dc/dcmitype/StillImage" /></cc:Work></rdf:RDF></metadata><defs
     id="defs6"><clipPath
       id="clipPath18"
       clipPathUnits="userSpaceOnUse"><path
         id="path16"
         d="M 0,149.983 H 149.983 V 0 H 0 Z" /></clipPath><clipPath
       id="clipPath26"
       clipPathUnits="userSpaceOnUse"><path
         id="path24"
         d="M 0,149.983 H 150 V -0.0169983 H 0 Z" /></clipPath></defs><g
     transform="matrix(1.3333333,0,0,-1.3333333,0,199.97733)"
     id="g10"><g
       id="g12"><g
         clip-path="url(#clipPath18)"
         id="g14"><g
           id="g20"><g
             id="g22" /><g
             id="g34"><g
               style="opacity:0.89999402"
               id="g32"
               clip-path="url(#clipPath26)"><g
                 id="g30"
                 transform="translate(150,22.7769)"><path
                   id="path28"
                   style="fill:#1f5a9b;fill-opacity:1;fill-rule:nonzero;stroke:none"
                   d="M 0,0 C 0,-12.589 -10.204,-22.794 -22.793,-22.794 H -127.206 C -139.794,-22.794 -150,-12.589 -150,0 v 104.413 c 0,12.588 10.206,22.793 22.794,22.793 H -22.793 C -10.204,127.206 0,117.001 0,104.413 Z" /></g></g></g></g><g
           transform="translate(115.0645,63.3277)"
           id="g36"><path
             id="path38"
             style="fill:#ffefd7;fill-opacity:1;fill-rule:nonzero;stroke:none"
             d="m 0,0 2.425,18.808 h -18.623 v 12.008 c 0,5.446 1.517,9.157 9.325,9.157 l 9.95,0.005 v 16.821 c -1.717,0.229 -7.624,0.742 -14.51,0.742 -14.359,0 -24.184,-8.767 -24.184,-24.864 V 18.808 H -51.859 V 0 h 16.242 v -48.256 h 19.419 V 0 Z" /></g></g></g></g></svg>