<?xml version="1.0" encoding="UTF-8" standalone="no"?>
<svg
   xmlns:dc="http://purl.org/dc/elements/1.1/"
   xmlns:cc="http://creativecommons.org/ns#"
   xmlns:rdf="http://www.w3.org/1999/02/22-rdf-syntax-ns#"
   xmlns:svg="http://www.w3.org/2000/svg"
   xmlns="http://www.w3.org/2000/svg"
   viewBox="0 0 1587.4 1122.52"
   height="1122.52"
   width="1587.4"
   xml:space="preserve"
   id="svg2"
   version="1.1"><metadata
     id="metadata8"><rdf:RDF><cc:Work
         rdf:about=""><dc:format>image/svg+xml</dc:format><dc:type
           rdf:resource="http://purl.org/dc/dcmitype/StillImage" /></cc:Work></rdf:RDF></metadata><defs
     id="defs6"><clipPath
       id="clipPath20"
       clipPathUnits="userSpaceOnUse"><path
         id="path18"
         d="M 0,841.89 H 1190.55 V 0 H 0 Z" /></clipPath><clipPath
       id="clipPath28"
       clipPathUnits="userSpaceOnUse"><path
         id="path26"
         d="M 455.699,721.395 H 605.682 V 571.412 H 455.699 Z" /></clipPath><clipPath
       id="clipPath44"
       clipPathUnits="userSpaceOnUse"><path
         id="path42"
         d="M 632.547,807.404 H 782.529 V 657.421 H 632.547 Z" /></clipPath><clipPath
       id="clipPath60"
       clipPathUnits="userSpaceOnUse"><path
         id="path58"
         d="M 842.93,721.395 H 992.912 V 571.412 H 842.93 Z" /></clipPath><clipPath
       id="clipPath76"
       clipPathUnits="userSpaceOnUse"><path
         id="path74"
         d="M 260.619,524.642 H 410.601 V 374.658 H 260.619 Z" /></clipPath><clipPath
       id="clipPath92"
       clipPathUnits="userSpaceOnUse"><path
         id="path90"
         d="M 443.518,496.237 H 593.501 V 346.254 H 443.518 Z" /></clipPath><clipPath
       id="clipPath108"
       clipPathUnits="userSpaceOnUse"><path
         id="path106"
         d="M 613.993,554.851 H 763.977 V 404.868 H 613.993 Z" /></clipPath><clipPath
       id="clipPath124"
       clipPathUnits="userSpaceOnUse"><path
         id="path122"
         d="M 799.486,524.642 H 949.47 V 374.658 H 799.486 Z" /></clipPath><clipPath
       id="clipPath140"
       clipPathUnits="userSpaceOnUse"><path
         id="path138"
         d="M 215.226,319.653 H 365.208 V 169.673 H 215.226 Z" /></clipPath><clipPath
       id="clipPath156"
       clipPathUnits="userSpaceOnUse"><path
         id="path154"
         d="M 412.793,240.118 H 562.776 V 90.1377 H 412.793 Z" /></clipPath><clipPath
       id="clipPath172"
       clipPathUnits="userSpaceOnUse"><path
         id="path170"
         d="M 631.299,292.585 H 781.282 V 142.604 H 631.299 Z" /></clipPath><clipPath
       id="clipPath188"
       clipPathUnits="userSpaceOnUse"><path
         id="path186"
         d="M 841.233,270.895 H 991.217 V 120.914 H 841.233 Z" /></clipPath><clipPath
       id="clipPath204"
       clipPathUnits="userSpaceOnUse"><path
         id="path202"
         d="M 288.537,787.404 H 438.519 V 637.421 H 288.537 Z" /></clipPath><clipPath
       id="clipPath248"
       clipPathUnits="userSpaceOnUse"><path
         id="path246"
         d="M 294.069,446.166 H 375.18 V 403.062 H 294.069 Z" /></clipPath></defs><g
     transform="matrix(1.3333333,0,0,-1.3333333,0,1122.52)"
     id="g10"><path
       id="path12"
       style="fill:#868686;fill-opacity:1;fill-rule:nonzero;stroke:none"
       d="M 0,0 H 1190.55 V 841.89 H 0 Z" /><g
       id="g14"><g
         clip-path="url(#clipPath20)"
         id="g16"><g
           id="g22"><g
             id="g24" /><g
             id="g36"><g
               style="opacity:0.69999701"
               id="g34"
               clip-path="url(#clipPath28)"><g
                 id="g32"
                 transform="translate(605.6816,594.2031)"><path
                   id="path30"
                   style="fill:#e94c88;fill-opacity:1;fill-rule:nonzero;stroke:none"
                   d="m 0,0 c 0,-12.587 -10.204,-22.791 -22.791,-22.791 h -104.401 c -12.587,0 -22.79,10.204 -22.79,22.791 v 104.401 c 0,12.587 10.203,22.791 22.79,22.791 H -22.791 C -10.204,127.192 0,116.988 0,104.401 Z" /></g></g></g></g><g
           id="g38"><g
             id="g40" /><g
             id="g52"><g
               style="opacity:0.69999701"
               id="g50"
               clip-path="url(#clipPath44)"><g
                 id="g48"
                 transform="translate(782.5293,680.2119)"><path
                   id="path46"
                   style="fill:#ef5223;fill-opacity:1;fill-rule:nonzero;stroke:none"
                   d="m 0,0 c 0,-12.587 -10.205,-22.791 -22.791,-22.791 h -104.4 c -12.586,0 -22.791,10.204 -22.791,22.791 v 104.401 c 0,12.587 10.205,22.791 22.791,22.791 h 104.4 C -10.205,127.192 0,116.988 0,104.401 Z" /></g></g></g></g><g
           id="g54"><g
             id="g56" /><g
             id="g68"><g
               style="opacity:0.60000598"
               id="g66"
               clip-path="url(#clipPath60)"><g
                 id="g64"
                 transform="translate(992.9121,594.2031)"><path
                   id="path62"
                   style="fill:#840d16;fill-opacity:1;fill-rule:nonzero;stroke:none"
                   d="m 0,0 c 0,-12.587 -10.205,-22.791 -22.791,-22.791 h -104.4 c -12.586,0 -22.791,10.204 -22.791,22.791 v 104.401 c 0,12.587 10.205,22.791 22.791,22.791 h 104.4 C -10.205,127.192 0,116.988 0,104.401 Z" /></g></g></g></g><g
           id="g70"><g
             id="g72" /><g
             id="g84"><g
               style="opacity:0.69999701"
               id="g82"
               clip-path="url(#clipPath76)"><g
                 id="g80"
                 transform="translate(410.6006,397.4492)"><path
                   id="path78"
                   style="fill:#ca2128;fill-opacity:1;fill-rule:nonzero;stroke:none"
                   d="m 0,0 c 0,-12.588 -10.203,-22.791 -22.79,-22.791 h -104.401 c -12.587,0 -22.791,10.203 -22.791,22.791 v 104.401 c 0,12.587 10.204,22.791 22.791,22.791 H -22.79 C -10.203,127.192 0,116.988 0,104.401 Z" /></g></g></g></g><g
           id="g86"><g
             id="g88" /><g
             id="g100"><g
               style="opacity:0.80000299"
               id="g98"
               clip-path="url(#clipPath92)"><g
                 id="g96"
                 transform="translate(593.501,369.0449)"><path
                   id="path94"
                   style="fill:#44546b;fill-opacity:1;fill-rule:nonzero;stroke:none"
                   d="m 0,0 c 0,-12.588 -10.205,-22.791 -22.792,-22.791 h -104.4 c -12.588,0 -22.791,10.203 -22.791,22.791 v 104.401 c 0,12.587 10.203,22.791 22.791,22.791 h 104.4 C -10.205,127.192 0,116.988 0,104.401 Z" /></g></g></g></g><g
           id="g102"><g
             id="g104" /><g
             id="g116"><g
               style="opacity:0.69999701"
               id="g114"
               clip-path="url(#clipPath108)"><g
                 id="g112"
                 transform="translate(763.9766,427.6587)"><path
                   id="path110"
                   style="fill:#60caef;fill-opacity:1;fill-rule:nonzero;stroke:none"
                   d="m 0,0 c 0,-12.587 -10.206,-22.791 -22.792,-22.791 h -104.4 c -12.586,0 -22.791,10.204 -22.791,22.791 v 104.401 c 0,12.587 10.205,22.791 22.791,22.791 h 104.4 C -10.206,127.192 0,116.988 0,104.401 Z" /></g></g></g></g><g
           id="g118"><g
             id="g120" /><g
             id="g132"><g
               style="opacity:0.69999701"
               id="g130"
               clip-path="url(#clipPath124)"><g
                 id="g128"
                 transform="translate(949.4697,397.4492)"><path
                   id="path126"
                   style="fill:#ed802c;fill-opacity:1;fill-rule:nonzero;stroke:none"
                   d="m 0,0 c 0,-12.588 -10.205,-22.791 -22.791,-22.791 h -104.401 c -12.586,0 -22.791,10.203 -22.791,22.791 v 104.401 c 0,12.587 10.205,22.791 22.791,22.791 H -22.791 C -10.205,127.192 0,116.988 0,104.401 Z" /></g></g></g></g><g
           id="g134"><g
             id="g136" /><g
             id="g148"><g
               style="opacity:0.69999701"
               id="g146"
               clip-path="url(#clipPath140)"><g
                 id="g144"
                 transform="translate(365.2075,192.4639)"><path
                   id="path142"
                   style="fill:#f9a11c;fill-opacity:1;fill-rule:nonzero;stroke:none"
                   d="m 0,0 c 0,-12.588 -10.203,-22.791 -22.79,-22.791 h -104.401 c -12.587,0 -22.791,10.203 -22.791,22.791 v 104.398 c 0,12.588 10.204,22.791 22.791,22.791 H -22.79 C -10.203,127.189 0,116.986 0,104.398 Z" /></g></g></g></g><g
           id="g150"><g
             id="g152" /><g
             id="g164"><g
               style="opacity:0.80000299"
               id="g162"
               clip-path="url(#clipPath156)"><g
                 id="g160"
                 transform="translate(562.7764,112.9287)"><path
                   id="path158"
                   style="fill:#326699;fill-opacity:1;fill-rule:nonzero;stroke:none"
                   d="m 0,0 c 0,-12.588 -10.205,-22.791 -22.792,-22.791 h -104.4 c -12.588,0 -22.791,10.203 -22.791,22.791 v 104.398 c 0,12.588 10.203,22.791 22.791,22.791 h 104.4 C -10.205,127.189 0,116.986 0,104.398 Z" /></g></g></g></g><g
           id="g166"><g
             id="g168" /><g
             id="g180"><g
               style="opacity:0.69999701"
               id="g178"
               clip-path="url(#clipPath172)"><g
                 id="g176"
                 transform="translate(781.2822,165.3955)"><path
                   id="path174"
                   style="fill:#e54a55;fill-opacity:1;fill-rule:nonzero;stroke:none"
                   d="m 0,0 c 0,-12.588 -10.206,-22.791 -22.792,-22.791 h -104.4 c -12.586,0 -22.791,10.203 -22.791,22.791 v 104.398 c 0,12.588 10.205,22.791 22.791,22.791 h 104.4 C -10.206,127.189 0,116.986 0,104.398 Z" /></g></g></g></g><g
           id="g182"><g
             id="g184" /><g
             id="g196"><g
               style="opacity:0.69999701"
               id="g194"
               clip-path="url(#clipPath188)"><g
                 id="g192"
                 transform="translate(991.2168,143.7051)"><path
                   id="path190"
                   style="fill:#702c90;fill-opacity:1;fill-rule:nonzero;stroke:none"
                   d="m 0,0 c 0,-12.588 -10.205,-22.791 -22.791,-22.791 h -104.401 c -12.586,0 -22.791,10.203 -22.791,22.791 v 104.398 c 0,12.588 10.205,22.791 22.791,22.791 H -22.791 C -10.205,127.189 0,116.986 0,104.398 Z" /></g></g></g></g><g
           id="g198"><g
             id="g200" /><g
             id="g212"><g
               style="opacity:0.89999402"
               id="g210"
               clip-path="url(#clipPath204)"><g
                 id="g208"
                 transform="translate(438.5186,660.2119)"><path
                   id="path206"
                   style="fill:#3a5a98;fill-opacity:1;fill-rule:nonzero;stroke:none"
                   d="m 0,0 c 0,-12.587 -10.203,-22.791 -22.79,-22.791 h -104.401 c -12.587,0 -22.791,10.204 -22.791,22.791 v 104.401 c 0,12.587 10.204,22.791 22.791,22.791 H -22.79 C -10.203,127.192 0,116.988 0,104.401 Z" /></g></g></g></g><g
           transform="translate(560.7363,670.7021)"
           id="g214"><path
             id="path216"
             style="fill:#ffeed7;fill-opacity:1;fill-rule:nonzero;stroke:none"
             d="m 0,0 c -0.9,-1.213 -8.042,-10.369 -23.796,-16.8 0.99,-2.033 1.939,-4.095 2.829,-6.174 0.309,-0.734 0.616,-1.467 0.916,-2.201 14.179,1.786 28.267,-1.074 29.676,-1.369 C 9.526,-16.485 5.933,-7.25 0,0 m -42.975,14.481 c 1.179,-1.573 8.919,-12.117 15.899,-24.943 15.157,5.675 21.571,14.3 22.339,15.392 -7.524,6.675 -17.423,10.738 -28.25,10.738 -3.44,0 -6.783,-0.411 -9.988,-1.187 m -31.726,-32.7 c 1.904,-0.026 19.462,-0.103 39.394,5.19 -7.059,12.554 -14.673,23.106 -15.8,24.645 -11.919,-5.619 -20.832,-16.611 -23.594,-29.835 m 10.054,-37.222 c 0.964,1.651 12.661,21.016 34.64,28.12 0.551,0.184 1.116,0.35 1.677,0.509 -1.068,2.421 -2.235,4.845 -3.455,7.232 -21.279,-6.37 -41.93,-6.104 -43.793,-6.064 -0.012,-0.436 -0.025,-0.865 -0.025,-1.303 0,-10.946 4.149,-20.936 10.956,-28.494 m 48.307,-10.731 c -0.637,3.738 -3.11,16.767 -9.095,32.312 l -0.28,-0.095 c -24.034,-8.374 -32.661,-25.044 -33.43,-26.611 7.223,-5.635 16.306,-8.996 26.158,-8.996 5.899,0 11.53,1.206 16.647,3.39 m 25.427,32.46 c -1.456,0.464 -13.19,3.96 -26.543,1.821 5.574,-15.314 7.845,-27.788 8.276,-30.383 9.561,6.464 16.367,16.704 18.267,28.562 m -42.074,-43.062 c -27.512,0 -49.889,22.385 -49.889,49.894 0,27.507 22.377,49.887 49.889,49.887 27.511,0 49.89,-22.38 49.89,-49.887 0,-27.509 -22.379,-49.894 -49.89,-49.894" /></g><g
           transform="translate(676.1641,710.3535)"
           id="g218"><path
             id="path220"
             style="fill:#ffeed7;fill-opacity:1;fill-rule:nonzero;stroke:none"
             d="m 0,0 c 7.082,0 12.82,-5.747 12.82,-12.826 0,-7.086 -5.738,-12.822 -12.82,-12.822 -7.084,0 -12.824,5.736 -12.824,12.822 C -12.824,-5.747 -7.084,0 0,0" /></g><g
           transform="translate(663.3535,729.8574)"
           id="g222"><path
             id="path224"
             style="fill:#ffeed7;fill-opacity:1;fill-rule:nonzero;stroke:none"
             d="m 0,0 c 12.021,0 23.311,-4.702 31.807,-13.228 8.5,-8.544 13.177,-19.915 13.177,-32.023 h 18.512 c 0,35.16 -28.484,63.769 -63.496,63.769 z" /></g><g
           transform="translate(663.377,762.6826)"
           id="g226"><path
             id="path228"
             style="fill:#ffeed7;fill-opacity:1;fill-rule:nonzero;stroke:none"
             d="M 0,0 C 42.826,0 77.67,-35.038 77.67,-78.09 H 96.18 C 96.18,-24.821 53.037,18.515 0,18.515 Z" /></g><g
           transform="translate(961.3691,219.3076)"
           id="g230"><path
             id="path232"
             style="fill:#ffeed7;fill-opacity:1;fill-rule:nonzero;stroke:none"
             d="m 0,0 -10.207,-3.424 c -1.52,-0.672 -5.651,-5.463 -12.816,-14.695 -7.61,-9.567 -11.517,-15.715 -12.167,-18.801 l -0.435,-8.541 -0.22,-5.127 0.876,-12.986 13.465,-0.34 -0.216,-6.502 h -21.941 l -19.552,-0.336 0.653,6.148 6.297,0.352 c 3.26,0.338 5.216,1.029 5.864,2.049 0.435,0.672 0.649,4.793 0.649,11.969 v 4.441 l -0.214,8.877 c -0.435,2.049 -3.912,9.572 -10.64,22.562 -6.952,13.331 -11.515,21.192 -13.69,23.928 l -12.598,2.735 v 5.812 c 0.654,0.678 7.607,0.678 20.424,0.34 8.905,0.338 16.288,0.338 22.152,-0.34 L -44.751,13.328 -58,11.271 c 4.126,-9.564 10.429,-22.89 18.898,-39.64 11.08,13.332 16.947,21.875 17.161,25.631 l -11.293,2.736 -0.875,6.156 h 18.903 L 2.604,5.811 Z" /></g><g
           transform="translate(363.4253,463.1084)"
           id="g234"><path
             id="path236"
             style="fill:#ffeed7;fill-opacity:1;fill-rule:nonzero;stroke:none"
             d="M 0,0 V 32.122 H -5.822 V 7.571 C -7.116,5.749 -8.338,4.846 -9.501,4.846 c -0.783,0 -1.236,0.462 -1.363,1.364 -0.072,0.187 -0.072,0.898 -0.072,2.266 v 23.646 h -5.803 v -25.4 c 0,-2.265 0.197,-3.805 0.52,-4.776 0.577,-1.629 1.871,-2.39 3.747,-2.39 2.121,0 4.331,1.291 6.65,3.95 l 0,-3.506 z m -27.351,9.305 c 0,-2.972 -0.899,-4.459 -2.774,-4.459 -1.88,0 -2.782,1.487 -2.782,4.459 v 13.514 c 0,2.974 0.902,4.452 2.782,4.452 1.875,0 2.774,-1.478 2.774,-4.452 z m 5.824,1.096 v 11.253 c 0,3.432 -0.589,5.94 -1.809,7.567 -1.611,2.193 -3.873,3.293 -6.789,3.293 -2.9,0 -5.17,-1.1 -6.778,-3.293 -1.241,-1.627 -1.824,-4.135 -1.824,-7.567 V 10.401 c 0,-3.415 0.583,-5.944 1.824,-7.557 1.608,-2.189 3.878,-3.288 6.778,-3.288 2.916,0 5.178,1.099 6.789,3.288 1.22,1.613 1.809,4.142 1.809,7.557 M -38.78,43.106 h -6.527 l -4.403,-16.927 -4.58,16.927 h -6.796 c 1.359,-3.993 2.779,-8.01 4.138,-12.008 2.07,-6.012 3.364,-10.542 3.947,-13.639 V 0 h 6.456 v 17.459 z" /></g><g
           transform="translate(382.2808,424.123)"
           id="g238"><path
             id="path240"
             style="fill:#ffeed7;fill-opacity:1;fill-rule:nonzero;stroke:none"
             d="m 0,0 c 0,-7.432 -0.005,-15.316 -1.672,-22.533 -1.164,-5.065 -5.31,-8.803 -10.301,-9.365 -11.818,-1.319 -23.783,-1.325 -35.69,-1.319 -11.909,-0.006 -23.871,0 -35.69,1.319 -4.993,0.562 -9.137,4.3 -10.299,9.365 -1.659,7.217 -1.659,15.101 -1.659,22.533 0,7.436 0.016,15.307 1.679,22.533 1.162,5.065 5.308,8.805 10.299,9.36 11.819,1.324 23.782,1.326 35.69,1.324 11.907,0.002 23.871,0 35.691,-1.324 4.994,-0.555 9.138,-4.295 10.3,-9.36 C 0.007,15.307 0,7.436 0,0" /></g><g
           id="g242"><g
             id="g244" /><g
             id="g256"><g
               style="opacity:0.69999701"
               id="g254"
               clip-path="url(#clipPath248)"><g
                 id="g252"
                 transform="translate(375.1802,413.6719)"><path
                   id="path250"
                   style="fill:#ca2128;fill-opacity:1;fill-rule:nonzero;stroke:none"
                   d="m 0,0 v 0.838 h -5.88 c 0,-2.311 -0.069,-3.582 -0.123,-3.897 -0.332,-1.541 -1.162,-2.312 -2.576,-2.312 -1.976,0 -2.939,1.465 -2.939,4.412 V 4.672 H 0 v 6.584 c 0,3.4 -0.579,5.887 -1.786,7.492 -1.611,2.178 -3.903,3.26 -6.793,3.26 -2.939,0 -5.238,-1.082 -6.897,-3.26 -1.228,-1.605 -1.78,-4.092 -1.78,-7.492 V 0.121 c 0,-3.373 0.624,-5.885 1.848,-7.473 1.663,-2.171 3.954,-3.257 6.974,-3.257 3.007,0 5.369,1.138 6.966,3.445 0.697,1.019 1.147,2.18 1.343,3.451 C -0.074,-3.133 0,-1.852 0,0 m -5.762,9.471 h -5.756 v 2.937 c 0,2.94 0.963,4.414 2.889,4.414 1.903,0 2.867,-1.474 2.867,-4.414 z m -15.98,-10.104 v 12.662 c 0,3.006 -0.197,5.114 -0.579,6.391 -0.769,2.381 -2.31,3.588 -4.606,3.588 -2.115,0 -4.09,-1.162 -5.949,-3.447 v 13.933 h -5.76 V -10.17 h 5.76 v 3.078 c 1.923,-2.379 3.899,-3.517 5.949,-3.517 2.296,0 3.837,1.207 4.606,3.57 0.382,1.348 0.579,3.467 0.579,6.406 m -5.757,-0.453 c 0,-2.873 -0.847,-4.285 -2.507,-4.285 -0.947,0 -1.91,0.453 -2.87,1.412 v 19.381 c 0.96,0.947 1.923,1.4 2.87,1.4 1.66,0 2.507,-1.474 2.507,-4.338 z m -21.888,-9.084 v 3.465 c -2.287,-2.623 -4.464,-3.904 -6.58,-3.904 -1.858,0 -3.14,0.752 -3.711,2.363 -0.318,0.969 -0.509,2.482 -0.509,4.726 v 25.139 h 5.757 V -1.785 c 0,-1.348 0,-2.055 0.052,-2.24 0.141,-0.893 0.577,-1.346 1.349,-1.346 1.154,0 2.369,0.892 3.642,2.693 v 24.297 h 5.765 V -10.17 Z m -11.638,36.654 v 6.01 h -20.086 v -6.01 h 6.776 V -10.17 h 6.407 v 36.654 z" /></g></g></g></g><g
           transform="translate(521.3027,470.3594)"
           id="g258"><path
             id="path260"
             style="fill:#ffeed7;fill-opacity:1;fill-rule:nonzero;stroke:none"
             d="M 0,0 V -24.506 H 23.001 V -39.73 H 0 V -64.6 c 0,-5.621 0.292,-9.226 0.887,-10.822 0.597,-1.592 1.698,-2.865 3.325,-3.822 2.147,-1.289 4.594,-1.938 7.36,-1.938 4.909,0 9.79,1.608 14.643,4.795 V -91.68 c -4.14,-1.955 -7.895,-3.326 -11.253,-4.111 -3.356,-0.785 -6.991,-1.178 -10.896,-1.178 -4.427,0 -8.342,0.559 -11.751,1.68 -3.41,1.123 -6.314,2.721 -8.72,4.787 -2.405,2.07 -4.073,4.277 -5.002,6.615 -0.927,2.326 -1.39,5.709 -1.39,10.143 v 34.014 h -10.721 v 13.725 c 3.81,1.234 7.079,3.01 9.783,5.316 2.725,2.313 4.902,5.087 6.54,8.328 1.648,3.239 2.779,7.356 3.399,12.361 z" /></g><g
           transform="translate(742.5654,507.3101)"
           id="g262"><path
             id="path264"
             style="fill:#ffeed7;fill-opacity:1;fill-rule:nonzero;stroke:none"
             d="m 0,0 c -3.523,-1.563 -7.312,-2.62 -11.285,-3.094 4.056,2.432 7.176,6.281 8.64,10.87 -3.792,-2.252 -7.996,-3.888 -12.474,-4.77 -3.587,3.821 -8.695,6.206 -14.345,6.206 -10.852,0 -19.65,-8.799 -19.65,-19.649 0,-1.542 0.173,-3.039 0.508,-4.476 -16.332,0.816 -30.807,8.639 -40.5,20.531 -1.688,-2.906 -2.658,-6.28 -2.658,-9.881 0,-6.815 3.468,-12.834 8.737,-16.353 -3.218,0.097 -6.248,0.988 -8.898,2.459 v -0.248 c 0,-9.52 6.774,-17.463 15.76,-19.268 -1.648,-0.447 -3.389,-0.693 -5.176,-0.693 -1.264,0 -2.499,0.127 -3.699,0.357 2.501,-7.806 9.756,-13.486 18.353,-13.648 -6.72,-5.268 -15.19,-8.412 -24.402,-8.412 -1.584,0 -3.146,0.095 -4.683,0.275 8.693,-5.568 19.022,-8.824 30.124,-8.824 36.139,0 55.901,29.935 55.901,55.904 0,0.849 -0.021,1.696 -0.053,2.545 C -5.968,-7.402 -2.641,-3.942 0,0" /></g><g
           transform="translate(894.999,422.8076)"
           id="g266"><path
             id="path268"
             style="fill:#ffeed7;fill-opacity:1;fill-rule:nonzero;stroke:none"
             d="m 0,0 h -27.427 c -2.573,0 -4.656,2.109 -4.656,4.633 0,2.553 2.083,4.637 4.656,4.637 H 0 C 2.555,9.27 4.639,7.186 4.639,4.633 4.639,2.109 2.555,0 0,0 m -27.427,37.141 h 13.495 c 2.578,0 4.661,-2.091 4.661,-4.639 0,-2.547 -2.083,-4.662 -4.661,-4.662 h -13.495 c -2.573,0 -4.656,2.115 -4.656,4.662 0,2.548 2.083,4.639 4.656,4.639 m 51.922,-12.11 -0.645,1.34 -1.08,0.85 c -1.418,1.105 -8.576,-0.08 -10.507,1.674 -1.367,1.261 -1.575,3.533 -1.987,6.595 -0.769,5.949 -1.262,6.257 -2.188,8.268 -3.37,7.16 -12.514,12.545 -18.797,13.294 h -17.024 c -13.395,0 -24.336,-10.975 -24.336,-24.371 V 4.271 c 0,-13.365 10.941,-24.31 24.336,-24.31 H 0.238 c 13.39,0 24.257,10.945 24.336,24.31 l 0.154,19.68 z" /></g><g
           transform="translate(239.2334,225.0713)"
           id="g270"><path
             id="path272"
             style="fill:#ffeed7;fill-opacity:1;fill-rule:nonzero;stroke:none"
             d="M 0,0 C 0.238,0 0.44,0.199 0.474,0.475 L 1.771,10.744 0.479,21.25 C 0.44,21.527 0.238,21.723 0,21.723 c -0.245,0 -0.452,-0.2 -0.485,-0.473 L -1.618,10.744 -0.485,0.479 C -0.452,0.203 -0.245,0 0,0" /></g><g
           transform="translate(234.9604,228.9795)"
           id="g274"><path
             id="path276"
             style="fill:#ffeed7;fill-opacity:1;fill-rule:nonzero;stroke:none"
             d="M 0,0 C 0.235,0 0.424,0.18 0.458,0.453 L 1.462,6.836 0.458,13.34 C 0.424,13.604 0.235,13.793 0,13.793 c -0.245,0 -0.435,-0.189 -0.469,-0.457 l -0.84,-6.5 0.84,-6.379 C -0.435,0.186 -0.245,0 0,0" /></g><g
           transform="translate(244.3433,248.2783)"
           id="g278"><path
             id="path280"
             style="fill:#ffeed7;fill-opacity:1;fill-rule:nonzero;stroke:none"
             d="M 0,0 C -0.031,0.334 -0.275,0.578 -0.579,0.578 -0.88,0.578 -1.125,0.334 -1.154,0 l -1.081,-12.463 1.081,-12.004 c 0.029,-0.332 0.274,-0.572 0.575,-0.572 0.304,0 0.548,0.24 0.579,0.572 l 1.225,12.004 z" /></g><g
           transform="translate(248.3452,222.7529)"
           id="g282"><path
             id="path284"
             style="fill:#ffeed7;fill-opacity:1;fill-rule:nonzero;stroke:none"
             d="M 0,0 C 0.354,0 0.642,0.295 0.677,0.676 L 1.834,13.057 0.677,25.867 C 0.642,26.252 0.354,26.541 0,26.541 c -0.361,0 -0.652,-0.289 -0.676,-0.674 L -1.698,13.057 -0.676,0.676 C -0.652,0.295 -0.361,0 0,0" /></g><g
           transform="translate(252.9565,222.5537)"
           id="g286"><path
             id="path288"
             style="fill:#ffeed7;fill-opacity:1;fill-rule:nonzero;stroke:none"
             d="M 0,0 C 0.414,0 0.746,0.332 0.781,0.775 L 0.777,0.771 1.867,13.256 0.777,25.143 C 0.746,25.578 0.414,25.916 0,25.916 c -0.42,0 -0.749,-0.338 -0.775,-0.775 L -1.739,13.256 -0.775,0.775 C -0.749,0.332 -0.42,0 0,0" /></g><g
           transform="translate(259.5054,235.8096)"
           id="g290"><path
             id="path292"
             style="fill:#ffeed7;fill-opacity:1;fill-rule:nonzero;stroke:none"
             d="m 0,0 -1.022,19.322 c -0.029,0.49 -0.411,0.881 -0.879,0.881 -0.464,0 -0.845,-0.391 -0.873,-0.881 L -3.68,0 -2.774,-12.484 c 0.028,-0.495 0.409,-0.877 0.873,-0.877 0.468,0 0.85,0.382 0.879,0.877 v -0.004 z" /></g><g
           transform="translate(262.2998,222.4287)"
           id="g294"><path
             id="path296"
             style="fill:#ffeed7;fill-opacity:1;fill-rule:nonzero;stroke:none"
             d="M 0,0 C 0.516,0 0.943,0.428 0.967,0.975 V 0.967 L 1.923,13.381 0.967,37.121 C 0.943,37.668 0.516,38.096 0,38.096 c -0.528,0 -0.952,-0.428 -0.98,-0.975 L -1.821,13.381 -0.977,0.969 C -0.952,0.428 -0.528,0 0,0" /></g><g
           transform="translate(267.0205,262.6064)"
           id="g298"><path
             id="path300"
             style="fill:#ffeed7;fill-opacity:1;fill-rule:nonzero;stroke:none"
             d="m 0,0 c -0.581,0 -1.049,-0.477 -1.074,-1.078 l -0.782,-25.727 0.782,-12.277 c 0.025,-0.6 0.493,-1.072 1.074,-1.072 0.579,0 1.051,0.47 1.072,1.072 v -0.004 L 1.96,-26.805 1.072,-1.078 C 1.051,-0.473 0.579,0 0,0" /></g><g
           transform="translate(271.7822,222.4287)"
           id="g302"><path
             id="path304"
             style="fill:#ffeed7;fill-opacity:1;fill-rule:nonzero;stroke:none"
             d="M 0,0 C 0.638,0 1.146,0.512 1.17,1.174 V 1.17 L 1.992,13.373 1.17,39.963 C 1.146,40.625 0.638,41.139 0,41.139 c -0.642,0 -1.157,-0.514 -1.167,-1.176 L -1.904,13.373 -1.167,1.17 C -1.157,0.512 -0.642,0 0,0" /></g><g
           transform="translate(276.5825,222.4424)"
           id="g306"><path
             id="path308"
             style="fill:#ffeed7;fill-opacity:1;fill-rule:nonzero;stroke:none"
             d="M 0,0 C 0.689,0 1.248,0.561 1.269,1.275 V 1.262 L 2.024,13.355 1.269,39.27 C 1.248,39.984 0.689,40.547 0,40.547 c -0.693,0 -1.25,-0.563 -1.271,-1.277 L -1.935,13.355 -1.267,1.271 C -1.25,0.561 -0.693,0 0,0" /></g><g
           transform="translate(283.4702,235.7979)"
           id="g310"><path
             id="path312"
             style="fill:#ffeed7;fill-opacity:1;fill-rule:nonzero;stroke:none"
             d="m 0,0 -0.685,24.971 c -0.016,0.771 -0.619,1.379 -1.367,1.379 -0.749,0 -1.352,-0.608 -1.369,-1.383 L -4.034,0 -3.421,-12.012 c 0.017,-0.763 0.62,-1.371 1.369,-1.371 0.748,0 1.351,0.608 1.367,1.383 v -0.012 z" /></g><g
           transform="translate(286.29,222.3936)"
           id="g314"><path
             id="path316"
             style="fill:#ffeed7;fill-opacity:1;fill-rule:nonzero;stroke:none"
             d="M 0,0 C 0.795,0 1.454,0.662 1.465,1.473 V 1.471 L 2.087,13.4 1.465,43.113 C 1.454,43.928 0.795,44.59 0,44.59 c -0.793,0 -1.45,-0.664 -1.466,-1.479 L -2.019,13.416 -1.466,1.471 C -1.45,0.662 -0.793,0 0,0" /></g><g
           transform="translate(291.1465,269.7803)"
           id="g318"><path
             id="path320"
             style="fill:#ffeed7;fill-opacity:1;fill-rule:nonzero;stroke:none"
             d="m 0,0 c -0.859,0 -1.555,-0.715 -1.569,-1.582 l -0.642,-32.406 0.646,-11.756 c 0.01,-0.858 0.706,-1.57 1.565,-1.57 0.845,0 1.555,0.712 1.559,1.584 v -0.014 L 2.26,-33.988 1.559,-1.582 C 1.555,-0.711 0.845,0 0,0" /></g><g
           transform="translate(295.5864,222.3838)"
           id="g322"><path
             id="path324"
             style="fill:#ffeed7;fill-opacity:1;fill-rule:nonzero;stroke:none"
             d="m 0,0 c 0.035,-0.006 39.138,-0.023 39.388,-0.023 7.85,0 14.213,6.439 14.213,14.388 0,7.942 -6.363,14.381 -14.213,14.381 -1.949,0 -3.805,-0.396 -5.497,-1.119 -1.126,12.969 -11.868,23.139 -24.973,23.139 -3.203,0 -6.326,-0.639 -9.085,-1.723 -1.075,-0.418 -1.362,-0.852 -1.37,-1.691 V 1.701 C -1.525,0.818 -0.852,0.084 0,0" /></g><g
           transform="translate(488.8965,180.4209)"
           id="g326"><path
             id="path328"
             style="fill:#ffeed7;fill-opacity:1;fill-rule:nonzero;stroke:none"
             d="m 0,0 c -9.672,0 -17.517,-7.596 -17.517,-16.977 0,-9.371 7.845,-16.974 17.517,-16.974 9.676,0 17.522,7.603 17.522,16.974 C 17.522,-7.596 9.676,0 0,0 m 33.673,-10.436 h -7.676 c 0.728,-2.378 1.123,-4.882 1.123,-7.49 0,-14.506 -12.145,-26.269 -27.12,-26.269 -14.972,0 -27.117,11.763 -27.117,26.269 0,2.608 0.399,5.112 1.123,7.49 h -8.008 v -36.851 c 0,-1.908 1.558,-3.459 3.465,-3.459 h 60.745 c 1.909,0 3.465,1.551 3.465,3.459 z m -13.824,27.2 c -2.162,0 -3.927,-1.774 -3.927,-3.934 V 3.436 c 0,-2.165 1.765,-3.93 3.927,-3.93 h 9.858 c 2.159,0 3.927,1.765 3.927,3.93 v 9.394 c 0,2.16 -1.768,3.934 -3.927,3.934 z m -52.348,9.687 h 64.838 c 6.159,0 11.195,-5.037 11.195,-11.197 v -64.838 c 0,-6.158 -5.036,-11.191 -11.195,-11.191 h -64.838 c -6.159,0 -11.2,5.033 -11.2,11.191 v 64.838 c 0,6.16 5.041,11.197 11.2,11.197" /></g><g
           transform="translate(698.9287,223.1963)"
           id="g330"><path
             id="path332"
             style="fill:#ffeed7;fill-opacity:1;fill-rule:nonzero;stroke:none"
             d="m 0,0 c 3.452,0.131 6.328,1.373 8.626,3.723 1.113,1.664 1.826,3.373 2.143,5.129 0.19,1.752 0.288,3.222 0.288,4.419 0,5.17 -1.325,10.387 -3.967,15.639 -1.243,2.518 -2.876,4.572 -4.901,6.151 -2.068,1.49 -4.443,2.285 -7.127,2.371 -3.555,-0.086 -6.505,-1.518 -8.864,-4.295 -1.988,-2.908 -2.938,-6.155 -2.847,-9.744 0,-4.741 1.383,-9.672 4.159,-14.803 1.346,-2.391 3.075,-4.42 5.205,-6.084 C -5.163,0.832 -2.734,0 0,0 m 18.28,-38.436 c 0,3.331 -1.086,6.227 -3.255,8.7 -2.296,2.341 -5.885,5.222 -10.772,8.638 -0.838,0.086 -1.819,0.125 -2.944,0.125 -0.667,0.082 -2.381,0 -5.135,-0.252 -2.713,-0.384 -5.492,-1.002 -8.333,-1.855 -0.667,-0.258 -1.603,-0.643 -2.815,-1.156 -1.211,-0.555 -2.441,-1.342 -3.697,-2.366 -1.212,-1.064 -2.232,-2.388 -3.066,-3.966 -0.962,-1.666 -1.437,-3.67 -1.437,-6.014 0,-4.609 2.08,-8.402 6.255,-11.389 3.97,-2.986 9.395,-4.521 16.285,-4.607 6.181,0.086 10.898,1.453 14.151,4.098 3.174,2.603 4.763,5.949 4.763,10.044 m -5.064,75.483 c 0.826,-0.514 1.751,-1.256 2.779,-2.238 0.988,-1.024 1.954,-2.288 2.9,-3.776 0.907,-1.408 1.711,-3.066 2.414,-4.99 0.577,-1.916 0.864,-4.156 0.864,-6.715 C 22.099,14.637 21.06,10.887 19.062,8.07 18.09,6.705 17.056,5.447 15.96,4.297 14.749,3.148 13.462,1.973 12.097,0.777 11.312,-0.031 10.593,-0.947 9.928,-1.973 9.148,-3.039 8.758,-4.271 8.758,-5.68 c 0,-1.373 0.401,-2.496 1.201,-3.392 0.68,-0.854 1.343,-1.602 1.984,-2.242 l 4.451,-3.643 c 2.761,-2.264 5.186,-4.75 7.268,-7.482 1.963,-2.774 2.984,-6.397 3.072,-10.872 0,-6.355 -2.808,-11.98 -8.421,-16.89 -5.812,-5.078 -14.211,-7.695 -25.184,-7.867 -9.186,0.084 -16.041,2.045 -20.572,5.871 -4.567,3.578 -6.856,7.853 -6.856,12.834 0,2.424 0.741,5.131 2.235,8.111 1.438,2.975 4.05,5.594 7.835,7.85 4.244,2.42 8.707,4.045 13.382,4.853 4.63,0.678 8.472,1.063 11.533,1.147 -0.945,1.244 -1.79,2.572 -2.53,3.986 -0.863,1.371 -1.291,3.027 -1.291,4.949 0,1.16 0.16,2.129 0.489,2.895 0.289,0.82 0.559,1.564 0.802,2.254 -1.488,-0.17 -2.897,-0.258 -4.21,-0.258 -6.984,0.088 -12.303,2.285 -15.965,6.59 -3.835,4.011 -5.751,8.679 -5.751,14.007 0,6.442 2.713,12.28 8.145,17.528 3.725,3.064 7.6,5.066 11.616,6.012 3.981,0.808 7.708,1.214 11.185,1.214 h 26.222 l -8.096,-4.728 z" /></g><g
           transform="translate(763.8535,250.6475)"
           id="g334"><path
             id="path336"
             style="fill:#ffeed7;fill-opacity:1;fill-rule:nonzero;stroke:none"
             d="m 0,0 h -13.758 v 13.762 h -6.667 V 0 h -13.758 v -6.666 h 13.758 v -13.756 h 6.667 V -6.666 H 0 Z" /></g><g
           transform="translate(916.2285,693.6372)"
           id="g338"><path
             id="path340"
             style="fill:#ffeed7;fill-opacity:1;fill-rule:nonzero;stroke:none"
             d="m 0,0 c -27.055,0 -48.992,-21.932 -48.992,-48.992 0,-20.06 12.062,-37.294 29.326,-44.871 -0.139,3.426 -0.023,7.531 0.85,11.248 0.943,3.983 6.304,26.702 6.304,26.702 0,0 -1.566,3.123 -1.566,7.747 0,7.254 4.215,12.679 9.455,12.679 4.449,0 6.603,-3.344 6.603,-7.351 0,-4.479 -2.859,-11.18 -4.324,-17.385 -1.228,-5.197 2.608,-9.434 7.727,-9.434 9.283,0 15.533,11.916 15.533,26.045 0,10.733 -7.228,18.769 -20.383,18.769 -14.859,0 -24.115,-11.079 -24.115,-23.456 0,-4.271 1.26,-7.281 3.228,-9.611 0.909,-1.072 1.038,-1.499 0.702,-2.728 -0.229,-0.907 -0.768,-3.072 -0.996,-3.931 -0.329,-1.247 -1.329,-1.687 -2.452,-1.228 -6.845,2.791 -10.033,10.287 -10.033,18.714 0,13.914 11.733,30.605 35.014,30.605 18.701,0 31.017,-13.535 31.017,-28.066 0,-19.218 -10.691,-33.574 -26.439,-33.574 -5.291,0 -10.266,2.861 -11.963,6.104 0,0 -2.85,-11.287 -3.447,-13.467 -1.041,-3.772 -3.074,-7.552 -4.934,-10.494 4.403,-1.297 9.059,-2.007 13.885,-2.007 27.053,0 48.986,21.931 48.986,48.99 C 48.986,-21.932 27.053,0 0,0" /></g><g
           transform="translate(403.5869,700.7588)"
           id="g342"><path
             id="path344"
             style="fill:#ffeed7;fill-opacity:1;fill-rule:nonzero;stroke:none"
             d="m 0,0 2.425,18.806 h -18.621 v 12.006 c 0,5.445 1.517,9.156 9.324,9.156 l 9.949,0.005 v 16.819 c -1.717,0.229 -7.623,0.742 -14.508,0.742 -14.357,0 -24.181,-8.766 -24.181,-24.861 V 18.806 H -51.853 V 0 h 16.241 v -48.251 h 19.416 V 0 Z" /></g></g></g></g></svg>