<?xml version="1.0" encoding="UTF-8" standalone="no"?>
<svg
   xmlns:dc="http://purl.org/dc/elements/1.1/"
   xmlns:cc="http://creativecommons.org/ns#"
   xmlns:rdf="http://www.w3.org/1999/02/22-rdf-syntax-ns#"
   xmlns:svg="http://www.w3.org/2000/svg"
   xmlns="http://www.w3.org/2000/svg"
   viewBox="0 0 199.97733 199.97733"
   height="199.97733"
   width="199.97733"
   xml:space="preserve"
   id="svg2"
   version="1.1"><metadata
     id="metadata8"><rdf:RDF><cc:Work
         rdf:about=""><dc:format>image/svg+xml</dc:format><dc:type
           rdf:resource="http://purl.org/dc/dcmitype/StillImage" /></cc:Work></rdf:RDF></metadata><defs
     id="defs6"><clipPath
       id="clipPath18"
       clipPathUnits="userSpaceOnUse"><path
         id="path16"
         d="M 0,149.983 H 149.983 V 0 H 0 Z" /></clipPath><clipPath
       id="clipPath26"
       clipPathUnits="userSpaceOnUse"><path
         id="path24"
         d="M 0,149.983 H 150 V -0.0169983 H 0 Z" /></clipPath></defs><g
     transform="matrix(1.3333333,0,0,-1.3333333,0,199.97733)"
     id="g10"><g
       id="g12"><g
         clip-path="url(#clipPath18)"
         id="g14"><g
           id="g20"><g
             id="g22" /><g
             id="g34"><g
               style="opacity:0.80000299"
               id="g32"
               clip-path="url(#clipPath26)"><g
                 id="g30"
                 transform="translate(150,22.7769)"><path
                   id="path28"
                   style="fill:#00669c;fill-opacity:1;fill-rule:nonzero;stroke:none"
                   d="M 0,0 C 0,-12.59 -10.206,-22.794 -22.794,-22.794 H -127.207 C -139.796,-22.794 -150,-12.59 -150,0 v 104.412 c 0,12.589 10.204,22.794 22.793,22.794 H -22.794 C -10.206,127.206 0,117.001 0,104.412 Z" /></g></g></g></g><g
           transform="translate(76.1113,90.2779)"
           id="g36"><path
             id="path38"
             style="fill:#ffefd7;fill-opacity:1;fill-rule:nonzero;stroke:none"
             d="m 0,0 c -9.673,0 -17.518,-7.597 -17.518,-16.979 0,-9.372 7.845,-16.976 17.518,-16.976 9.678,0 17.524,7.604 17.524,16.976 C 17.524,-7.597 9.678,0 0,0 M 33.677,-10.437 H 26 c 0.728,-2.379 1.123,-4.883 1.123,-7.491 0,-14.508 -12.145,-26.273 -27.123,-26.273 -14.974,0 -27.12,11.765 -27.12,26.273 0,2.608 0.399,5.112 1.124,7.491 h -8.01 v -36.856 c 0,-1.909 1.559,-3.46 3.466,-3.46 h 60.752 c 1.909,0 3.465,1.551 3.465,3.46 z M 19.852,16.766 c -2.164,0 -3.928,-1.774 -3.928,-3.934 V 3.436 c 0,-2.165 1.764,-3.93 3.928,-3.93 h 9.859 c 2.159,0 3.928,1.765 3.928,3.93 v 9.396 c 0,2.16 -1.769,3.934 -3.928,3.934 z m -52.354,9.689 h 64.845 c 6.16,0 11.196,-5.038 11.196,-11.199 V -49.59 c 0,-6.159 -5.036,-11.193 -11.196,-11.193 h -64.845 c -6.16,0 -11.202,5.034 -11.202,11.193 v 64.846 c 0,6.161 5.042,11.199 11.202,11.199" /></g></g></g></g></svg>