<?xml version="1.0" encoding="UTF-8" standalone="no"?>
<svg
   xmlns:dc="http://purl.org/dc/elements/1.1/"
   xmlns:cc="http://creativecommons.org/ns#"
   xmlns:rdf="http://www.w3.org/1999/02/22-rdf-syntax-ns#"
   xmlns:svg="http://www.w3.org/2000/svg"
   xmlns="http://www.w3.org/2000/svg"
   viewBox="0 0 199.97733 199.97733"
   height="199.97733"
   width="199.97733"
   xml:space="preserve"
   id="svg2"
   version="1.1"><metadata
     id="metadata8"><rdf:RDF><cc:Work
         rdf:about=""><dc:format>image/svg+xml</dc:format><dc:type
           rdf:resource="http://purl.org/dc/dcmitype/StillImage" /></cc:Work></rdf:RDF></metadata><defs
     id="defs6"><clipPath
       id="clipPath18"
       clipPathUnits="userSpaceOnUse"><path
         id="path16"
         d="M 0,149.983 H 149.983 V 0 H 0 Z" /></clipPath><clipPath
       id="clipPath26"
       clipPathUnits="userSpaceOnUse"><path
         id="path24"
         d="M -0.00682068,149.944 H 149.977 V -0.0384979 H -0.00682068 Z" /></clipPath></defs><g
     transform="matrix(1.3333333,0,0,-1.3333333,0,199.97733)"
     id="g10"><g
       id="g12"><g
         clip-path="url(#clipPath18)"
         id="g14"><g
           id="g20"><g
             id="g22" /><g
             id="g34"><g
               style="opacity:0.69999701"
               id="g32"
               clip-path="url(#clipPath26)"><g
                 id="g30"
                 transform="translate(149.9766,22.7516)"><path
                   id="path28"
                   style="fill:#00cbf1;fill-opacity:1;fill-rule:nonzero;stroke:none"
                   d="m 0,0 c 0,-12.587 -10.206,-22.79 -22.792,-22.79 h -104.4 c -12.586,0 -22.791,10.203 -22.791,22.79 v 104.402 c 0,12.587 10.205,22.791 22.791,22.791 h 104.4 C -10.206,127.193 0,116.989 0,104.402 Z" /></g></g></g></g><g
           transform="translate(128.5654,102.4034)"
           id="g36"><path
             id="path38"
             style="fill:#ffefd7;fill-opacity:1;fill-rule:nonzero;stroke:none"
             d="m 0,0 c -3.523,-1.563 -7.312,-2.62 -11.285,-3.094 4.056,2.432 7.176,6.281 8.64,10.87 -3.792,-2.252 -7.996,-3.888 -12.474,-4.77 -3.587,3.821 -8.695,6.206 -14.345,6.206 -10.852,0 -19.65,-8.799 -19.65,-19.649 0,-1.542 0.173,-3.039 0.508,-4.476 -16.332,0.816 -30.807,8.639 -40.5,20.531 -1.688,-2.906 -2.658,-6.28 -2.658,-9.881 0,-6.815 3.468,-12.834 8.737,-16.353 -3.218,0.097 -6.248,0.988 -8.898,2.459 v -0.248 c 0,-9.52 6.774,-17.464 15.76,-19.267 -1.648,-0.448 -3.389,-0.694 -5.176,-0.694 -1.264,0 -2.499,0.127 -3.699,0.357 2.501,-7.806 9.756,-13.486 18.353,-13.648 -6.72,-5.268 -15.19,-8.412 -24.402,-8.412 -1.584,0 -3.146,0.096 -4.683,0.276 8.693,-5.57 19.022,-8.826 30.124,-8.826 36.139,0 55.901,29.937 55.901,55.905 0,0.849 -0.021,1.696 -0.053,2.545 C -5.968,-7.402 -2.641,-3.942 0,0" /></g></g></g></g></svg>